<?xml version="1.0" encoding="UTF-8" standalone="no"?>
<!-- Created with Inkscape (http://www.inkscape.org/) -->

<svg
   xmlns:dc="http://purl.org/dc/elements/1.1/"
   xmlns:cc="http://creativecommons.org/ns#"
   xmlns:rdf="http://www.w3.org/1999/02/22-rdf-syntax-ns#"
   xmlns:svg="http://www.w3.org/2000/svg"
   xmlns="http://www.w3.org/2000/svg"
   xmlns:sodipodi="http://sodipodi.sourceforge.net/DTD/sodipodi-0.dtd"
   xmlns:inkscape="http://www.inkscape.org/namespaces/inkscape"
   width="600mm"
   height="400mm"
   viewBox="0 0 2125.9843 1417.3228"
   id="svg3833"
   version="1.1"
   inkscape:version="0.91 r13725"
   sodipodi:docname="Pattern 3.svg">
  <defs
     id="defs3835" />
  <sodipodi:namedview
     id="base"
     pagecolor="#ffffff"
     bordercolor="#666666"
     borderopacity="1.0"
     inkscape:pageopacity="0.0"
     inkscape:pageshadow="2"
     inkscape:zoom="0.175"
     inkscape:cx="1147.6154"
     inkscape:cy="581.2765"
     inkscape:document-units="px"
     inkscape:current-layer="layer1"
     showgrid="false"
     inkscape:window-width="1366"
     inkscape:window-height="705"
     inkscape:window-x="-8"
     inkscape:window-y="-8"
     inkscape:window-maximized="1"
     inkscape:snap-global="false"
     inkscape:snap-bbox="false" />
  <metadata
     id="metadata3838">
    <rdf:RDF>
      <cc:Work
         rdf:about="">
        <dc:format>image/svg+xml</dc:format>
        <dc:type
           rdf:resource="http://purl.org/dc/dcmitype/StillImage" />
        <dc:title />
      </cc:Work>
    </rdf:RDF>
  </metadata>
  <g
     inkscape:label="Layer 1"
     inkscape:groupmode="layer"
     id="layer1"
     transform="translate(0,364.96067)">
    <path
       class="path"
       style="opacity:0.4;fill:#ffffff;stroke:#F05D49;stroke-width:4;stroke-miterlimit:10"
       stroke-miterlimit="10"
       d="m 2272.6777,15.238281 c -14.4756,15.017358 -29.3132,29.624583 -45.3379,43.019531 -39.7314,32.948768 -80.8777,64.269338 -128.0293,86.066408 -20.1611,9.32015 -32.2949,15.32743 -53.1347,23.33008 -40.7193,15.63656 -83.0215,26.91028 -125.6446,35.93554 -11.6778,2.23075 -23.3091,4.72868 -35.0351,6.69141 -64.4684,10.79091 -129.9872,14.09217 -195.2109,16.28516 -91.9714,1.69257 -183.9357,-2.62607 -275.6797,-8.90235 -106.3593,-8.1791 -212.4763,-18.83671 -318.2266,-32.96094 -106.07351,-13.0632 -212.00951,-27.93108 -318.74609,-34.65039 -38.78806,-2.16319 -70.08568,-4.24912 -108.9375,-5.04882 -74.94784,-1.54267 -149.99306,0.25965 -224.71093,6.45507 -17.69438,1.83152 -35.41683,3.41642 -53.08399,5.49414 -84.58395,9.94746 -168.47303,25.38983 -251.06641,46.16407 -16.12271,4.27312 -32.31481,8.2901 -48.367183,12.82031 -77.542464,21.88357 -153.894232,48.95864 -226.832027,83.25977 -14.22759,7.10161 -28.59701,13.92361 -42.68165,21.30468 -64.9971,34.06185 -127.13733,73.73077 -182.94921,121.53321 -38.01791,33.36097 -73.84637,66.70692 -102.18164,108.98437 -815.20957,154.90297 -561.30677,107.93115 11.86328,0.67383 3.45361,-5.31195 7.05463,-10.49567 10.78601,-15.56514 25.73654,-34.96577 57.67472,-64.49647 90.2218,-93.18291 55.62263,-47.8068 117.66012,-87.36748 182.53906,-121.33984 14.07278,-7.36888 28.43073,-14.17848 42.64649,-21.26758 72.928716,-34.20554 149.239281,-61.2561 226.74609,-83.09375 16.04311,-4.52017 32.22658,-8.52577 48.33984,-12.78906 82.56157,-20.72385 166.41254,-36.13278 250.95704,-46.04883 17.65427,-2.07063 35.36343,-3.64882 53.04492,-5.47266 68.09765,-5.36506 136.48087,-8.03824 204.79101,-6.36523 44.73306,1.09558 64.27749,2.5261 108.94336,5.00195 106.71669,6.67756 212.63319,21.52656 318.68363,34.58985 105.7602,14.11378 211.8832,24.80682 318.25,33.0039 98.5056,7.55911 197.2429,10.13494 296,9.02539 65.313,-2.22718 130.9321,-5.52201 195.4824,-16.38281 11.7403,-1.97536 23.3824,-4.48916 35.0742,-6.73437 42.692,-9.06907 85.0677,-20.37946 125.8477,-36.07422 20.7367,-7.98084 33.169,-14.13222 53.2324,-23.42188 47.2327,-21.87989 88.4199,-53.330126 128.2422,-86.333982 16.0912,-13.42166 30.9851,-28.063275 45.5039,-43.132813 310.8286,-8.3040072 1304.333,-32.312149 -11.3399,-0.871094 z"
       transform="translate(0,-364.96079)"
       id="path3861"
       inkscape:connector-curvature="0"
       sodipodi:nodetypes="ccsscsccccscscscscccscscscscsccccscscccc" />
    <path
       class="path"
       style="opacity:0.4;fill:#ffffff;stroke:#9ED9E1;stroke-width:4;stroke-miterlimit:10"
       stroke-miterlimit="10"
       d="m 291.25977,80.046875 c -15.86798,-0.05913 -31.74554,0.166696 -47.63086,0.722656 -76.8347,2.82714 -153.709006,7.647127 -229.482426,21.464849 -72.363414,14.16709 -144.184144,31.72841 -213.429684,57.40039 -66.66397,26.44467 -132.62585,54.88579 -194.84961,90.79492 -58.63484,33.43622 -116.64947,67.98461 -171.94531,106.7832 -32.76899,23.22924 -64.71895,47.47631 -94.61524,74.35156 -203.20515,88.03396 -616.73694,265.1019 11.88281,1.01367 29.39559,-27.0862 61.18981,-51.17927 93.73047,-74.31445 55.15287,-38.84859 113.10663,-73.32691 171.67188,-106.70117 62.19792,-35.87973 128.15436,-64.24399 194.79297,-90.64844 69.23173,-25.5728 141.010803,-43.0977 213.337886,-57.21289 C 100.48133,89.952594 177.33168,85.194114 254.14062,82.396484 c 77.70752,-2.375792 155.24501,4.157653 232.42383,12.445313 88.46572,10.110233 175.80716,27.596243 262.58594,47.197263 90.69414,19.97762 180.78854,42.52711 270.47071,66.61133 93.7657,26.1301 187.95,50.61468 282.6875,72.95703 96.5303,22.46551 194.2252,39.11418 292.2109,53.69336 61.2499,7.85379 122.8356,14.94748 184.6446,16.21094 43.1289,0.88161 54.8692,-0.0295 95.6093,-1.45899 82.9034,-3.11672 163.7859,-21.68345 243.6914,-42.59961 50.5196,-13.78577 100.4747,-29.89391 148.8711,-49.9707 29.1961,-12.11176 36.277,-16.05433 64.3536,-29.70117 50.8766,-24.96447 98.1055,-56.40054 144.4238,-88.85547 84.7465,-6.82182 993.942,-45.38397 -0.3633,-8.80859 -2.9511,2.16025 -5.9201,4.31481 -8.9082,6.46875 -46.7777,32.86526 -94.4774,64.71779 -145.8906,89.98828 -27.9875,13.60256 -35.1111,17.56622 -64.2168,29.63281 -48.3516,20.04548 -98.2694,36.09576 -148.7383,49.86133 -79.8837,20.86233 -160.7426,39.33483 -243.6133,42.375 -26.8895,0.92462 -48.4163,2.13492 -74.9004,1.48047 -61.8617,-1.52866 -123.5193,-8.00218 -184.8262,-16.07617 -97.9765,-14.54171 -195.6624,-31.17001 -292.1835,-53.60938 -94.7161,-22.30931 -188.8754,-46.77846 -282.6036,-72.9375 C 940.20545,183.17492 850.11302,160.64639 759.43164,140.64453 672.69753,121.01447 585.40127,103.47882 496.98047,93.306641 428.61219,85.919554 360.02094,80.303112 291.25977,80.046875 Z"
       transform="translate(0,-364.96079)"
       id="path3863"
       inkscape:connector-curvature="0"
       sodipodi:nodetypes="scccccccccccccccccsccscccccsccscccccs" />
    <path
       class="path"
       style="opacity:0.4;fill:#ffffff;stroke:#9ED9E1;stroke-width:4;stroke-miterlimit:10"
       stroke-miterlimit="10"
       d="m 955.80273,72.478516 c -24.62481,0.05444 -49.24874,0.605108 -73.8457,1.566406 -40.16585,2.45018 -58.6515,3.097077 -98.83398,7.505859 -69.03289,7.57424 -137.40207,20.253289 -205.5586,33.330079 -100.9297,21.7704 -201.67476,45.90451 -297.76172,84.42969 -92.05135,37.11354 -182.540153,78.14324 -268.873042,127.3164 -79.248018,44.93091 -157.807178,91.5218 -229.382808,148.20899 -36.35235,29.72769 -72.68988,59.82015 -104.3125,94.68359 -517.99338,86.87251 -1167.84318,195.61981 11.94921,0.83203 30.95193,-35.03399 67.04279,-64.97093 103.06641,-94.5664 71.34474,-56.729 149.769809,-103.24236 228.888672,-148.07618 86.298118,-49.16072 176.784708,-90.11217 268.810548,-127.1875 96.04756,-38.46575 196.75032,-62.53267 297.62695,-84.27148 68.17831,-13.0418 136.56628,-25.713935 205.6211,-33.234375 40.05622,-4.36236 58.85606,-5.016442 98.89843,-7.427734 58.80036,-2.51075 117.7578,-1.646197 176.4531,2.720703 37.5195,2.79143 51.5674,4.843609 88.8574,9.224609 91.263,11.976822 180.7997,33.529907 269.6622,57.031247 84.275,23.22858 168.4811,46.67744 252.2168,71.79493 76.7313,24.3198 153.864,47.19838 231.9082,66.93359 75.4151,19.00441 152.1205,31.93848 229.3828,40.36133 50.0826,4.54322 100.3471,7.09499 150.6426,6.11523 24.7228,-0.48165 39.2242,-1.86201 63.7636,-3.65039 45.5322,-3.06849 90.3983,-10.49503 134.6172,-21.19336 795.5846,-148.284 356.9985,-65.8118 -0.1172,-4.19531 -47.6762,12.09105 -96.1075,20.44849 -145.3047,23.75781 -29.1906,2.10499 -34.1382,2.78675 -63.6679,3.58984 -43.1668,1.17423 -86.336,-2.77454 -129.3301,-5.98632 -77.2972,-8.3409 -154.0389,-21.2102 -229.4863,-40.19532 -78.063,-19.69049 -155.2013,-42.57461 -231.9454,-66.88281 -83.8045,-25.12186 -168.0862,-48.56182 -252.4296,-71.80078 -88.8428,-23.52733 -178.356,-45.146336 -269.5957,-57.191406 -37.3369,-4.406212 -51.3415,-6.460651 -88.9102,-9.277343 -40.9254,-3.068388 -81.96813,-4.356352 -123.00977,-4.265625 z"
       transform="translate(0,-364.96079)"
       id="path3865"
       inkscape:connector-curvature="0"
       sodipodi:nodetypes="scsccccccccccscscccccsccccscccccss" />
    <path
       class="path"
       style="opacity:0.4;fill:#ffffff;stroke:#F05D49;stroke-width:4;stroke-miterlimit:10"
       stroke-miterlimit="10"
       d="m 535.32812,144.37695 c -13.1739,-0.0287 -26.35226,0.0737 -39.53515,0.32422 -102.14162,0.74768 -204.45657,3.91987 -305.89258,16.80469 -99.307181,13.62077 -198.4988011,30.06697 -294.58203,59.34766 -35.73774,11.4726 -56.91623,17.7248 -92.00391,31.18554 -59.78531,22.93561 -117.5995,51.10026 -172.87109,83.38477 -13.2714,8.26174 -26.71229,16.25791 -39.81445,24.78515 -58.21056,37.88437 -113.25088,80.93192 -161.93946,130.55469 -30.44419,32.10402 -60.06995,65.05568 -85.82226,101.11914 -527.13449,44.2284 -329.81265,28.45582 11.875,0.72657 25.16304,-36.19679 54.62773,-69.02581 84.83398,-101.01954 48.42441,-49.63415 103.30971,-92.59704 161.375,-130.37304 13.08881,-8.51531 26.51706,-16.4972 39.77539,-24.7461 55.25053,-32.22383 113.03362,-60.3465 172.79102,-83.2207 34.95215,-13.37918 56.39608,-19.70182 91.996092,-31.10352 96.0494254,-29.21293 195.199098,-45.60071 294.458988,-59.18554 101.43329,-12.81481 203.73716,-15.96849 305.86914,-16.67383 98.73641,-1.35341 197.20366,5.92481 295.45508,14.74609 97.99947,9.17395 195.36171,23.80367 292.47652,39.59375 88.5917,15.26013 176.1338,35.86652 263.5625,56.625 81.7448,19.69405 163.4337,39.61025 245.3516,58.57617 74.7316,17.8383 149.8604,33.8629 225.3789,47.98243 74.0012,13.51125 148.7547,22.02604 223.625,28.87304 57.4723,4.47561 115.1809,7.39505 172.8379,5.26563 10.1626,-0.37533 20.2927,-1.35677 30.4395,-2.03516 55.1877,-3.19837 108.7401,-12.09116 162.1347,-25.49414 972.571,-253.85591 340.3779,-91.63859 -2.5176,-3.5957 -56.0699,14.4861 -112.5223,24.12419 -170.455,27.44726 -17.8218,1.16575 -33.1388,2.51565 -50.6993,2.61719 -43.7527,0.25298 -87.4706,-2.5542 -131.0781,-5.79492 -74.901,-6.78349 -149.6809,-15.26542 -223.7109,-28.75781 -75.5464,-14.09159 -150.6993,-30.1099 -225.459,-47.92578 -81.9669,-18.94604 -163.7071,-38.84224 -245.4902,-58.55274 -87.4761,-20.78738 -175.0749,-41.38335 -263.7129,-56.67969 C 1006.8214,183.3837 909.41879,168.73146 811.37891,159.52734 719.55282,151.26699 627.54669,144.57783 535.32812,144.37695 Z"
       transform="translate(0,-364.96079)"
       id="path3867"
       inkscape:connector-curvature="0"
       sodipodi:nodetypes="scccscsccccscscccccccccsccccsccccccs" />
    <path
       class="path"
       style="opacity:0.4;fill:#ffffff;stroke:#F05D49;stroke-width:4;stroke-miterlimit:10"
       stroke-miterlimit="10"
       id="path3869"
       d="m -526.34901,993.62351 c 27.98692,-31.9427 57.90705,-62.2288 90.22536,-89.8136 9.75007,-8.322 19.83726,-16.2407 29.7559,-24.361 61.49739,-47.6284 127.86972,-89.0309 197.42994,-123.8497 15.22357,-7.6202 30.786,-14.5438 46.179,-21.8157 77.921687,-35.4779 159.5563654,-62.0338 242.630147,-82.4544 16.521062,-4.0611 33.178693,-7.5449 49.768043,-11.3174 65.82614,-14.31002 132.74857,-22.73911 200.05348,-25.27082 42.62989,-1.60355 68.61968,-0.72081 112.32382,-0.23686 103.37921,2.94074 206.04468,16.08828 307.88279,33.42238 94.76933,16.6018 188.51175,38.3397 282.28023,59.733 88.2543,19.57 175.9999,41.2833 264.2982,60.6578 82.9916,18.6093 167.0619,31.873 251.2926,43.388 49.5843,5.7506 99.2817,11.0425 149.1645,13.395 26.5893,1.2539 45.4497,1.2674 72.018,1.6051 63.7267,0.1045 127.2078,-4.2716 190.4991,-11.3172 44.5317,-5.643 88.9519,-12.3256 132.8084,-21.9955 20.4165,-4.5017 44.7291,-10.8747 64.9706,-16.0335 42.2291,-11.236 83.917,-24.6692 124.3508,-41.2968 21.5726,-8.8713 34.8399,-15.4749 55.83,-25.4066 47.8148,-23.4249 93.7133,-50.5378 136.2035,-82.62879 26.8905,-21.40781 51.9261,-45.27823 72.2522,-73.05781 1.8438,-3.65991 3.6875,-7.31982 5.5313,-10.97973 553.6057,-55.3041 479.9652,-41.32354 11.6377,0.54096 l 0,0 -5.5683,11.17221 c -20.4088,27.9266 -45.6686,51.82258 -72.6563,73.36167 -42.576,32.17289 -88.6007,59.30979 -136.4978,82.82729 -20.8786,9.885 -34.4658,16.6395 -55.9165,25.4773 -40.4545,16.6674 -82.161,30.1538 -124.4184,41.4184 -19.9872,5.1062 -44.8224,11.6239 -64.9827,16.086 -43.8517,9.7057 -88.2681,16.4184 -132.7985,22.0947 -24.2466,2.7137 -41.6381,4.875 -65.9784,6.7376 -48.5319,3.7139 -97.2502,4.3908 -145.8985,4.6694 -26.8379,-0.3591 -45.1313,-0.3746 -71.9949,-1.6627 -49.8426,-2.3898 -99.5013,-7.6875 -149.0411,-13.4924 -84.1769,-11.5721 -168.1937,-24.8637 -251.134,-43.4951 -88.2675,-19.3863 -175.9864,-41.0949 -264.2097,-60.6784 -93.71645,-21.3906 -187.41296,-43.1005 -282.13098,-59.6957 -101.8245,-17.29439 -204.47527,-30.41092 -307.83802,-33.26939 -39.03962,-0.64459 -51.22463,-1.3108 -92.19792,0.19769 -67.29789,2.47767 -134.22137,10.82933 -200.04815,25.1003 -16.58699,3.7609 -33.24233,7.232 -49.76097,11.2825 -83.059232,20.3666 -164.698236,46.832 -242.61053,82.2692 -15.38288,7.2573 -30.93699,14.1622 -46.14863,21.7719 -69.422,34.7286 -135.65622,76.0702 -196.95519,123.6872 -9.8719,8.1087 -19.91589,16.0124 -29.61569,24.3262 -32.05519,27.475 -61.79368,57.6131 -89.17853,89.7288 -83.03827,-19.29633 -905.30539,-133.18638 -11.8059,-0.8215 z"
       inkscape:connector-curvature="0"
       sodipodi:nodetypes="cscscscscccccsccscscccccccccscscscscccccscscscscc" />
    <path
       class="path"
       style="opacity:0.4;fill:#ffffff;stroke:#9ED9E1;stroke-width:4;stroke-miterlimit:10"
       stroke-miterlimit="10"
       id="path3875"
       d="m -532.87358,939.51151 c 26.77578,-33.4226 57.06432,-63.661 88.20281,-92.9649 42.4657,-39.5249 89.67184,-73.5721 140.16148,-102.1059 10.89484,-6.1571 22.09729,-11.7533 33.14593,-17.63 56.57708,-28.0314 116.37938,-49.497 177.913637,-63.7126 12.342556,-2.8513 24.822977,-5.0691 37.234465,-7.6036 76.539968,-14.9183 154.467215,-17.7005 232.201068,-18.3346 92.32606,-0.9805 184.57757,3.7469 276.57819,11.0658 95.92345,8.8253 191.14285,23.7146 286.47675,37.2625 98.24314,14.7242 196.7762,27.3826 295.19765,40.831 102.7783,13.8552 205.7529,26.1435 308.7467,38.2639 106.7555,13.1253 213.7713,23.5131 321.1254,30.1039 78.4994,3.857 157.3233,3.3232 235.6059,-4.1811 15.6086,-1.4963 31.1544,-3.5883 46.7315,-5.3824 74.3523,-9.9324 147.7234,-28.2177 217.1734,-56.7927 13.0783,-5.381 25.8275,-11.5293 38.7413,-17.294 48.4986,-22.9713 94.533,-50.6129 137.7172,-82.43939 24.2151,-17.84639 32.6615,-25.37192 55.5747,-44.34672 40.3504,-33.67521 76.2416,-72.19065 110.4173,-111.99585 15.5325,-19.25512 31.8042,-37.93796 45.3918,-58.65743 l 3.1176,-5.62087 c 319.4392,-30.35642 657.4155,-57.61294 11.8599,0.60161 l 0,0 c -1.0572,1.90239 -2.1145,3.80478 -3.1717,5.70717 -13.7255,20.78541 -30.1988,39.46792 -45.8709,58.77603 -34.3934,39.83414 -70.4885,78.38672 -110.9846,112.13802 -23.0303,19.04808 -31.3862,26.48698 -55.7153,44.416 -43.2536,31.87523 -89.3473,59.57153 -137.8997,82.62753 -12.9276,5.7836 -25.6898,11.952 -38.7828,17.3508 -69.4951,28.6563 -142.9303,47.0299 -217.3468,57.0284 -15.5864,1.806 -31.141,3.9112 -46.7591,5.418 -84.9851,8.199 -170.5961,7.9373 -255.8099,4.1692 -107.3405,-6.6371 -214.3425,-17.0606 -321.0894,-30.1659 -103.0425,-12.1084 -206.0635,-24.4055 -308.8889,-38.2624 -98.42775,-13.4359 -196.96225,-26.1179 -295.21105,-40.8346 -95.37036,-13.5374 -190.62689,-28.4203 -286.59197,-37.181 -85.12471,-6.7347 -170.46664,-11.3681 -255.88992,-10.96 -77.68353,0.6065 -155.563315,3.3208 -232.068866,18.1471 -12.410944,2.5163 -24.890798,4.7137 -37.232833,7.5487 -61.508791,14.1286 -121.287671,35.5261 -177.859411,63.4647 -11.03556,5.8594 -22.22509,11.4376 -33.10667,17.5783 -50.40702,28.4456 -97.56435,62.387 -139.89244,101.896 -30.90666,29.1626 -61.03003,59.2313 -87.20186,92.8129 -174.4091,-27.73827 -836.98888,-103.99521 -11.94056,-0.7416 z"
       inkscape:connector-curvature="0"
       sodipodi:nodetypes="ccscscccccccscscscccccccccscscscccccccscsccc" />
    <path
       class="path"
       style="opacity:0.4;fill:#ffffff;stroke:#F05D49;stroke-width:4;stroke-miterlimit:10"
       stroke-miterlimit="10"
       id="path3877"
       d="m -346.51438,1009.8431 c 33.40772,-20.59839 65.97685,-42.52839 99.07231,-63.62659 71.61571,-46.3281 145.76141,-88.3858 220.736881,-128.9706 77.652634,-40.8201 158.254679,-76.2543 240.887919,-105.7588 16.77306,-5.9888 33.74632,-11.4015 50.61949,-17.1022 101.30106,-32.5012 205.66706,-53.1798 310.54859,-69.93255 87.61676,-13.64215 175.81094,-23.7603 264.40777,-28.0392 17.45526,-0.84302 34.93042,-1.2057 52.39563,-1.80855 17.09902,-0.12778 34.19774,-0.45884 51.29708,-0.38336 42.01947,0.18549 68.84791,0.66748 109.79951,3.24583 48.4024,3.04746 96.4229,8.76091 144.5169,14.81915 93.5712,12.05132 184.9412,35.74418 275.8662,60.21348 87.6002,23.6884 174.1523,51.0126 261.3406,76.138 78.977,22.8353 159.0558,41.0919 239.9916,55.3392 72.4675,13.0724 145.7594,19.4372 219.2267,23.0077 62.6291,4.5496 124.9889,-1.649 187.0132,-9.7984 40.7439,-6.216 80.9692,-15.4965 119.8557,-29.2441 22.3748,-7.9103 33.9687,-13.2468 55.7457,-22.5186 48.365,-21.1762 93.2874,-48.9149 135.671,-80.2039 29.7087,-23.2392 56.2731,-49.993 80.4994,-78.81595 14.8796,-18.40059 30.1858,-36.67649 41.9835,-57.26489 3.1975,-5.49974 4.8558,-11.3867 6.2366,-17.51912 202.1287,-17.68629 101.8817,-8.25367 11.8864,0.2595 l 0,0 c -1.3708,6.27212 -3.0443,12.26407 -6.3276,17.87527 -11.902,20.66398 -27.3396,38.97689 -42.3131,57.45197 -24.3031,28.91382 -50.9639,55.73442 -80.7506,79.06492 -42.4995,31.3413 -87.5252,59.1482 -135.9767,80.432 -21.5659,9.2058 -33.6196,14.7444 -55.7717,22.6129 -38.9104,13.8211 -79.1644,23.1709 -119.9489,29.4344 -23.2712,3.0714 -40.7368,5.622 -64.1578,7.719 -47.9726,4.2955 -96.2319,4.3098 -144.3147,2.1513 -73.4254,-3.629 -146.6727,-10.0582 -219.094,-23.1633 -80.8745,-14.3042 -160.8888,-32.6176 -239.8054,-55.4772 -87.1526,-25.1582 -173.6848,-52.4626 -261.265,-76.129 -90.8923,-24.451 -182.2358,-48.08898 -275.7784,-60.08209 -94.6707,-11.89279 -189.8688,-20.71023 -285.41944,-17.61488 -17.468,0.59305 -34.94585,0.94518 -52.40401,1.77915 -88.59234,4.232 -176.78579,14.3096 -264.3974,27.9421 -104.87615,16.70612 -209.23851,37.32752 -310.54734,69.76222 -16.87504,5.6889 -33.85131,11.0859 -50.62511,17.0666 -82.57717,29.4433 -163.131817,64.8225 -240.70302,105.6403 -74.7663,40.5413 -148.71249,82.5433 -220.02526,128.9676 -32.83556,21.0549 -65.20818,42.811 -98.04825,63.85639 -510.13324,-17.0777 -1046.13727,-40.33068 -11.92495,-1.3257 z"
       inkscape:connector-curvature="0"
       sodipodi:nodetypes="cccsccscssccccccscccccccccccscsccccccsccscccc" />
    <path
       class="path"
       style="opacity:0.4;fill:#ffffff;stroke:#F05D49;stroke-width:4;stroke-miterlimit:10"
       stroke-miterlimit="10"
       id="path3879"
       d="m -613.69013,1113.6961 c 26.64588,-33.2727 57.25234,-62.9533 87.84191,-92.5286 37.08365,-34.45259 74.91588,-68.19769 114.89554,-99.28709 28.7014,-22.3191 41.32265,-30.656 71.23576,-51.7043 52.75661,-35.9512 107.25244,-69.3158 163.72274,-99.1246 38.87548,-20.5211 54.37285,-27.2541 94.358693,-46.0847 67.215877,-29.7294 136.530031,-54.7782 207.068827,-75.4125 45.66923,-13.3594 62.08782,-16.75088 108.28217,-27.91894 72.78049,-16.18977 146.63981,-27.49505 220.97636,-33.36555 48.45357,-3.82647 63.70879,-3.57516 112.29448,-4.82891 96.96155,-1.43317 193.97548,4.61756 290.05531,17.70896 18.32297,2.49661 36.55867,5.59647 54.83801,8.3947 105.32793,16.45225 208.01363,45.43594 310.16613,75.27314 97.5463,30.1205 195.2528,59.6374 293.6547,86.8416 98.8299,27.4572 198.691,50.9253 299.1011,71.7886 84.2819,15.9602 169.3441,28.6042 254.9672,34.5394 16.4163,1.138 32.8656,1.736 49.2984,2.6039 74.7682,3.4192 149.905,0.2274 224.2528,-8.3577 14.4061,-1.6635 28.7418,-3.8886 43.1127,-5.8329 71.5662,-11.3506 141.7297,-30.0337 210.342,-53.1127 44.5494,-15.5808 87.0345,-35.9153 127.423,-60.2146 18.8068,-12.684 37.8356,-25.4857 53.1025,-42.4296 4.4292,-5.1063 6.7199,-11.0295 8.2177,-17.492 132.5485,-17.3972 249.8712,-32.72339 11.9563,0.2699 l 0,0 c -1.5165,6.6633 -3.8177,12.8026 -8.3531,18.0892 -15.356,17.122 -34.6148,29.9348 -53.5635,42.7362 -40.5529,24.36 -83.1998,44.759 -127.909,60.4033 -68.7849,23.1211 -139.1286,41.8191 -210.8592,53.2479 -14.3929,1.9546 -28.7503,4.1916 -43.1788,5.8638 -81.1355,9.4029 -163.0963,11.9671 -244.669,8.3778 -16.4212,-0.8809 -32.8589,-1.4936 -49.2635,-2.6427 -85.617,-5.997 -170.6692,-18.6812 -254.945,-34.6654 -100.4144,-20.8858 -200.2778,-44.3808 -299.1124,-71.8535 -98.3995,-27.2212 -196.108,-56.74 -293.658,-86.856 -102.0912,-29.8184 -204.7195,-58.76888 -309.99292,-75.16176 -18.27349,-2.78804 -36.50372,-5.87611 -54.82048,-8.3641 -89.53979,-12.1623 -179.93472,-18.34119 -270.30145,-17.6193 -48.52445,1.22366 -63.88213,0.96702 -112.2761,4.75932 -74.32401,5.82426 -148.17329,17.0864 -220.94767,33.22857 -46.18192,11.13796 -62.61712,14.52277 -108.27061,27.85517 -70.501588,20.5889 -139.7772178,45.5951 -206.957384,75.2858 -39.980726,18.8325 -55.359666,25.5101 -94.224086,46.0351 -56.3978,29.7846 -110.83202,63.1075 -163.51662,99.0312 -29.87873,21.0364 -42.4418,29.334 -71.09916,51.6467 -39.87529,31.047 -77.57648,64.7756 -114.51655,99.22249 -30.32349,29.4794 -60.81691,58.9775 -86.78055,92.4862 -181.08696,-18.256 -641.50522,-77.5391 -11.94925,-0.8315 z"
       inkscape:connector-curvature="0"
       sodipodi:nodetypes="ccscscscscsccccscscccccccccccscsccccscscscscsccc" />
    <path
       class="path"
       style="opacity:0.4;fill:#ffffff;stroke:#9ED9E1;stroke-width:4;stroke-miterlimit:10"
       stroke-miterlimit="10"
       d="m 2284.0781,124.00391 c -16.1986,23.02064 -33.5244,45.21647 -51.2558,67.08398 -35.1026,42.66676 -71.951,83.87885 -111.7754,122.23438 -50.4353,47.41415 -102.7928,92.83721 -160.0645,131.92773 -63.2784,42.75092 -128.9996,81.99664 -199.1269,112.59766 -79.4178,34.31725 -160.838,64.11541 -245.3457,83.40429 -14.8445,3.11389 -29.637,6.48562 -44.5332,9.3418 -73.138,14.02339 -147.3548,21.43222 -221.586,26.56445 -88.0163,5.53499 -176.24,8.57089 -264.41599,4.86914 -95.33991,-3.49809 -190.56149,-9.33663 -285.5918,-17.86718 -95.57626,-7.87675 -191.19317,-15.68291 -287.03125,-19.60352 -102.42409,-3.45135 -204.98513,-4.36211 -307.3789,0.75781 -42.450616,2.36339 -55.993215,2.77054 -98.2460975,6.50196 -64.1289295,5.66334 -127.9388225,14.50168 -191.5117225,24.55273 -90.22054,15.50173 -180.10386,33.04805 -268.72656,56.17188 -78.35266,20.48281 -156.42785,43.25273 -230.70703,75.91015 -61.67676,28.14779 -122.69859,58.42949 -176.86133,99.70899 -30.67469,23.79562 -61.2475,48.70985 -84.43359,80.19922 l 11.90234,0.69921 c 22.72095,-31.48587 53.13623,-56.24321 83.55274,-79.89062 54.02365,-41.22274 114.92348,-71.42988 176.47656,-99.49609 74.21238,-32.57974 152.20211,-55.31634 230.47265,-75.75391 88.55914,-23.12642 178.38936,-40.62682 268.55079,-56.10742 63.54883,-10.03607 127.336129,-18.85473 191.441402,-24.49024 42.136524,-3.70424 55.880867,-4.11873 98.210938,-6.46093 95.65376,-5.03419 191.44234,-3.93577 287.125,-0.73243 95.81457,3.89744 191.41089,11.69005 286.96289,19.5625 95.03396,8.51952 190.25569,14.39044 285.59766,17.91407 95.004,3.73633 190.0694,1.12086 284.9062,-4.88086 74.2406,-5.14667 148.468,-12.59451 221.6055,-26.67774 14.8901,-2.86722 29.676,-6.25376 44.5137,-9.38086 84.6602,-19.39395 165.9711,-49.2076 245.541,-83.58984 70.2044,-30.64517 135.9754,-69.9705 199.3203,-112.77734 57.2988,-39.17525 109.7314,-84.62479 160.2188,-132.08985 39.9117,-38.42527 76.8842,-79.67168 112.1562,-122.34375 17.7639,-21.78856 35.1042,-43.91963 51.3867,-66.83008 -2.809,-0.28691 642.2389,-72.708583 639.4256,-72.949503 -0.9718,-0.08322 -649.8027,71.996073 -650.7752,71.920213 z"
       transform="translate(0,-364.96079)"
       id="path3341"
       inkscape:connector-curvature="0"
       sodipodi:nodetypes="ccccccscccccsccccccccccscccccsccccccsc" />
    <path
       class="path"
       style="opacity:0.4;fill:#ffffff;stroke:#9ED9E1;stroke-width:4;stroke-miterlimit:10"
       stroke-miterlimit="10"
       d="m 2488.7012,324.96094 c -1.1875,1.82023 -2.3829,3.63484 -3.5957,5.4375 l 4.4179,0 c -0.4071,-1.67913 -0.6885,-3.49051 -0.8222,-5.4375 z m -55.0489,68.04101 c -39.1611,38.97108 -81.1225,74.95104 -125.625,107.73438 -54.0908,38.52731 -109.0062,76.09241 -168.1269,106.63086 -29.1925,14.70721 -38.0684,19.66338 -68.3164,32.90039 -49.3265,21.58608 -100.1332,39.86403 -151.3887,56.26172 -13.1777,3.809 -26.2746,7.9089 -39.5332,11.42578 -64.8101,17.19103 -131.266,27.43927 -198.2754,30.16601 -24.426,0.81369 -45.1982,1.80737 -69.3203,1.625 -54.539,-0.41233 -109.0355,-3.87713 -163.2734,-9.51953 -85.307,-10.20221 -169.9862,-24.52153 -254.5528,-39.61328 -91.1068,-15.62721 -182.0554,-32.95163 -274.13278,-41.98828 -96.18098,-9.3947 -192.58683,-17.655 -289.29297,-18.41992 -45.30873,-0.32342 -63.0795,-0.92091 -106.69726,0.40625 -65.11141,1.98114 -130.04843,7.4504 -194.65821,15.70703 -39.81202,5.73728 -57.21307,7.89512 -96.85546,15.01367 -63.41806,11.38791 -126.17155,26.26838 -188.453129,42.70117 -86.924288,23.94716 -173.653541,49.18923 -257.509771,82.58594 -73.30492,29.69722 -145.81366,61.78914 -213.80664,102.47852 -54.52521,33.20893 -107.96552,68.68484 -154.33593,112.91214 -25.84919,25.4475 -51.03451,51.9069 -69.53711,83.3711 -43.34423,15.8309 -651.11524,123.7273 11.91601,0.6054 18.01763,-31.4783 43.10766,-57.7804 68.73438,-83.0937 46.22716,-44.15588 99.52762,-79.5632 153.91992,-112.69533 67.91225,-40.6365 140.33881,-72.67074 213.55273,-102.33399 83.7901,-33.34609 170.444159,-58.55507 257.289067,-82.49023 62.264443,-16.41488 125.002203,-31.27218 188.404293,-42.62891 39.71288,-7.11346 56.95099,-9.23662 96.83789,-14.96484 93.17347,-12.56252 187.09899,-17.02419 281.03907,-15.97461 96.69611,0.72712 193.09378,8.95228 289.26562,18.33203 92.03958,9.00597 182.95358,26.28729 274.01558,41.92969 84.53,15.08754 169.1657,29.43263 254.4297,39.68359 84.187,9.73446 168.9173,10.86138 253.5137,7.99609 67.011,-2.76874 133.4479,-13.12175 198.2383,-30.38867 13.2623,-3.53444 26.3632,-7.64858 39.5449,-11.47265 51.2685,-16.47423 102.1168,-34.74638 151.4668,-56.3711 30.1272,-13.20149 39.3202,-18.31159 68.4121,-32.96679 59.2091,-30.57501 114.1903,-68.19778 168.3633,-106.77149 42.8419,-31.56262 83.3413,-66.07546 121.2773,-103.34375 1118.7784,-339.445376 -4.4136,-3.22127 -6.5293,-5.42969 z"
       transform="translate(0,-364.96079)"
       id="path3343"
       inkscape:connector-curvature="0"
       sodipodi:nodetypes="cccccccscscsccccscsccccccccccsccccccscscccc" />
    <path
       class="path"
       style="opacity:0.4;fill:#ffffff;stroke:#F05D49;stroke-width:4;stroke-miterlimit:10"
       stroke-miterlimit="10"
       d="m 2248.5996,110.43164 c -22.0943,2.82054 -44.11,6.29935 -66.0137,10.5293 -65.5195,13.70217 -130.6617,30.07078 -192.6367,55.82812 -68.4593,28.65284 -134.8187,61.87373 -198.0644,100.82227 -81.089,49.42082 -160.7718,101.04885 -238.3809,155.80859 -77.3931,54.36004 -154.4018,109.35966 -233.8711,160.66992 -76.4627,47.38771 -155.2791,91.20149 -239.0625,124.45313 -32.8541,13.01183 -48.5502,19.68748 -81.93553,31.08984 -55.50434,18.9569 -112.37276,33.74981 -169.50196,46.86914 -85.62546,17.87432 -172.02993,31.76036 -259.19922,39.58008 -86.056,7.6418 -172.21184,14.92802 -258.67382,15.40039 -11.54086,0.23161 -58.28218,1.27976 -73.1836,1.22266 C 184.40159,852.49925 130.772,849.48668 77.261719,845.48438 3.2715736,839.19459 -70.492537,831.0709 -143.9668,820.22656 c -68.32345,-9.5305 -136.40457,-20.48776 -204.26367,-32.91797 -59.31467,-10.29524 -118.57484,-20.98763 -178.10742,-29.95117 -34.99012,-4.30602 -70.08679,-7.86824 -105.39063,-7.66992 -496.42788,-27.90577 -396.31028,-21.25556 -11.79101,1.86914 35.53965,-0.34005 70.88387,3.14762 106.11523,7.41602 59.64568,8.8433 118.99856,19.56968 178.41016,29.85156 67.89882,12.42147 136.01858,23.388 204.37695,32.93945 73.521222,10.83774 147.3268474,19.00471 221.363284,25.29492 84.794476,7.68778 169.874416,7.78629 254.908206,6.04883 86.44571,-0.48818 172.58305,-7.82374 258.62109,-15.48242 87.17048,-7.85234 173.57761,-21.75898 259.19336,-39.70312 57.13902,-13.16152 114.02722,-27.97351 169.53715,-46.97657 33.4491,-11.45091 49.0245,-18.09453 81.9355,-31.16015 83.8507,-33.35452 162.51,-77.14978 239.0195,-124.64258 79.3712,-51.39214 156.4396,-106.24582 233.6875,-160.75 77.6287,-54.85065 157.476,-106.34933 238.6797,-155.70703 63.3606,-38.8598 129.7964,-72.04563 198.3418,-100.63086 62.0036,-25.66709 127.1543,-41.97493 192.6797,-55.61524 18.7338,-3.59227 37.5488,-6.63043 56.4238,-9.18554 1142.3621,-139.841239 641.8437,-77.215507 -1.1738,-2.82227 z"
       transform="translate(0,-364.96079)"
       id="path3347"
       inkscape:connector-curvature="0"
       sodipodi:nodetypes="cccccccscccscccccccccccccscccccccc" />
    <path
       class="path"
       style="opacity:0.4;fill:#ffffff;stroke:#9ED9E1;stroke-width:4;stroke-miterlimit:10"
       stroke-miterlimit="10"
       id="path3351"
       d="m -981.47482,154.91823 c 48.25814,-29.1674 98.20807,-55.37553 148.46539,-80.89067 89.30798,-45.65967 182.65608,-82.29819 276.83895,-116.43345 89.7006,-31.73273 180.98516,-59.27329 274.36373,-77.91927 18.56567,-3.70722 37.26917,-6.68726 55.90375,-10.03089 96.58793,-15.59266 194.607713,-18.40492 292.196228,-13.65554 18.533776,0.90199 37.021312,2.58455 55.531972,3.87683 73.37649,6.64274 146.38171,17.134 218.64297,31.51098 44.07211,8.76851 62.48723,13.57807 106.22074,23.97995 70.8789,18.1169 140.93172,39.63381 209.65204,64.7482 40.00468,14.62003 60.05351,23.21687 99.36751,39.25312 92.50088,38.77002 180.36118,87.42939 266.07884,139.2449 77.5065,47.35178 153.6309,96.88106 231.2835,143.99414 53.409,32.25524 106.8717,64.71594 163.04,92.03423 10.4871,5.10054 21.1712,9.78552 31.7568,14.67828 42.0947,17.92166 85.3682,33.10073 129.6248,44.74123 21.2014,5.57647 44.0732,10.49137 65.461,15.28046 61.0114,13.42954 123.1223,19.35746 185.3864,22.62548 52.2377,2.9088 104.5056,0.40763 156.5556,-4.14989 47.59,-4.34205 94.6716,-12.32811 141.7716,-20.14495 36.0995,-5.64146 71.9254,-12.73586 107.3319,-21.74344 21.6551,-5.73198 43.1969,-11.91542 64.1841,-19.77535 8.8255,-3.07664 17.2867,-6.96534 25.4907,-11.40948 952.3742,-108.0324 676.4381,-75.14932 11.8903,1.2833 l 0,0 c -8.2729,4.46504 -16.7268,8.52561 -25.6566,11.55325 -21.0652,7.94859 -42.7316,14.0857 -64.4786,19.86753 -35.4861,9.04635 -71.3949,16.17157 -107.5835,21.80713 -47.1699,7.78989 -94.3044,15.84447 -141.9591,20.20401 -59.3186,5.24759 -118.8911,7.10398 -178.4105,4.1697 -62.2303,-3.32696 -124.3038,-9.33452 -185.2692,-22.82736 -21.7516,-4.8848 -43.8918,-9.64324 -65.4517,-15.34287 -44.2552,-11.69937 -87.5269,-26.9235 -129.6076,-44.9144 -10.5789,-4.90757 -21.2556,-9.60959 -31.7367,-14.72271 -56.0962,-27.36612 -109.4923,-59.84336 -162.8287,-92.1355 -77.523,-47.18135 -153.5601,-96.71047 -231.0051,-144.02011 C 925.89435,107.92148 838.12425,59.2582 745.67213,20.55088 706.23341,4.46552 686.51121,-4.00101 646.37346,-18.65805 577.65909,-43.75038 507.61091,-65.23607 436.73296,-83.30421 393.1098,-93.65935 374.49189,-98.50607 330.53756,-107.23597 258.29,-121.58526 185.29506,-132.03396 111.93438,-138.63854 c -32.17205,-2.22952 -69.213361,-5.27681 -101.769713,-5.85342 -75.67388,-1.34025 -151.420537,3.88614 -226.204657,15.51944 -18.64234,3.32952 -37.35384,6.29265 -55.92701,9.98855 -93.34836,18.57551 -184.60218,46.08017 -274.26043,77.80028 -94.00798,34.07684 -187.16916,70.68556 -276.2577,116.37361 -49.88146,25.4526 -99.5331,51.49755 -147.21013,80.93299 z"
       inkscape:connector-curvature="0"
       sodipodi:nodetypes="cccscscscscccscscccccccccccccccscscccscscscscccc" />
    <path
       class="path"
       style="opacity:0.4;fill:#ffffff;stroke:#F05D49;stroke-width:4;stroke-miterlimit:10"
       stroke-miterlimit="10"
       id="path3353"
       d="m -710.39042,-142.67937 c 21.08762,36.36322 47.7032,69.067 74.21098,101.54024 41.96523,51.63183 90.79445,96.9057 141.63509,139.58063 53.05788,42.10921 110.35026,79.18246 172.08778,107.31212 13.33354,6.0752 27.03748,11.30219 40.55622,16.95329 74.14795,27.1656 152.33907,42.10363 230.98562,47.98332 16.671154,1.24635 33.392045,1.70127 50.08806719,2.55191 C 100.73444,276.85898 201.85753,264.83392 302.25128,250.97667 c 108.37883,-16.4596 216.19319,-36.3184 324.2131,-54.92149 107.84917,-19.7103 216.03026,-37.36597 324.7743,-51.32222 87.06422,-9.9262 174.69182,-15.84626 262.33932,-16.44858 20.1607,-0.13855 40.3221,0.15138 60.4831,0.22707 95.2668,1.05916 190.1891,10.01127 284.369,23.9389 56.6436,8.94356 112.9502,20.42752 168.3368,35.35149 34.4541,9.28368 43.2835,12.65133 77.0597,23.67759 46.5903,16.76295 92.8052,34.75591 137.241,56.68277 15.3715,7.58512 44.8074,23.32574 60.0947,31.42915 52.2385,27.20337 99.7409,62.06855 147.8502,95.75596 36.4317,26.01836 71.1901,54.26318 106.751,81.43993 20.9554,16.40007 42.2224,32.40757 62.7122,49.3922 7.5631,6.29406 14.7822,12.97827 21.9197,19.74533 147.9304,-12.97179 1277.091,-121.06144 -11.8377,0.96314 l 0,0 c -7.101,-6.73775 -14.2806,-13.39568 -21.7922,-19.67829 -20.3725,-16.96944 -41.5052,-32.99287 -62.3447,-49.379 -35.4427,-27.19467 -70.0958,-55.44003 -106.4536,-81.42037 -47.9991,-33.68646 -95.4486,-68.46143 -147.5929,-95.64574 -15.6268,-8.29054 -44.2681,-23.63011 -60.0046,-31.38812 -44.3793,-21.87882 -90.5316,-39.84555 -137.0597,-56.56959 -33.7374,-10.99225 -42.5788,-14.35585 -76.9877,-23.61282 -55.3372,-14.88729 -111.5887,-26.35143 -168.1789,-35.26858 -94.1147,-13.86938 -188.9645,-22.81078 -284.1601,-23.82264 -101.1401,-0.61643 -202.3255,4.0896 -302.79975,16.07561 -108.75692,13.92231 -216.94891,31.55897 -324.80588,51.27403 -108.00105,18.60591 -215.79815,38.45369 -324.15056,54.96412 -39.29006,5.43872 -66.73599,9.57395 -106.17681,13.69423 -72.04517,7.52638 -144.543918,10.93843 -216.971296,8.67711 -16.708598,-0.86525 -33.442473,-1.33372 -50.125793,-2.59574 -78.738741,-5.95624 -157.020381,-20.97434 -231.228961,-48.26109 -13.53365,-5.67179 -27.25251,-10.92043 -40.60094,-17.01536 -61.81129,-28.22322 -119.20287,-65.35222 -172.33561,-107.54073 -50.96471,-42.73064 -99.89039,-88.07779 -142.00307,-139.75616 -26.7152,-32.58172 -53.36882,-65.46473 -75.05153,-101.70461 -575.1075,50.374627 -111.84676,-1.29932 11.87648,-0.59354 z"
       inkscape:connector-curvature="0"
       sodipodi:nodetypes="cccscsccccsccscscccccccccccscscccccscscscccc" />
    <path
       class="path"
       style="opacity:0.4;fill:#ffffff;stroke:#9ED9E1;stroke-width:4;stroke-miterlimit:10"
       stroke-miterlimit="10"
       id="path3355"
       d="m -1062.155,416.67516 c 37.0362,17.55915 76.35534,29.16486 115.53493,40.79145 58.80745,17.36378 119.29407,27.18989 179.89624,35.65136 48.58969,6.34375 97.54034,9.28928 146.53472,9.04293 24.98127,-0.12561 46.16235,-1.63453 71.54342,-2.98289 89.78018,-6.46073 178.74172,-20.77377 267.08926,-37.58843 C -185.98084,442.82103 -91.395402,419.61886 2.6281223,394.29373 100.08692,367.84691 196.53611,337.94734 293.88632,311.1083 c 57.71714,-15.01767 115.9139,-29.07011 175.05182,-37.31453 35.65352,-4.97045 43.90384,-4.85604 79.38694,-7.1428 53.03624,-1.94443 106.29545,-0.0282 158.67221,8.95339 28.34981,4.86144 40.75493,8.49442 68.62218,15.42759 65.14359,17.5766 126.38837,45.6932 186.23646,76.32151 56.44897,29.3825 111.08787,62.02264 166.57497,93.13437 34.5435,17.87941 69.3266,35.70042 105.7849,49.42842 22.0867,8.31653 30.6616,10.43764 53.173,17.13539 49.7254,13.18909 101.1329,18.24949 152.4478,15.49937 60.8691,-4.16875 119.8543,-19.96878 177.8536,-37.98939 61.0371,-20.27513 121.7861,-41.38562 182.4611,-62.71309 54.551,-19.76231 110.0483,-36.20147 166.5523,-49.27366 49.1183,-11.28243 99.1678,-17.41678 149.3675,-21.08563 49.4832,-2.83349 98.8676,-0.16228 147.9413,6.2249 39.2054,5.49041 76.9501,17.12823 114.0567,30.53746 31.4563,12.11026 62.6051,25.01265 93.1311,39.31189 25.6272,12.78399 52.4011,22.93721 79.1831,32.97805 23.109,9.83759 47.6433,13.82148 72.4664,16.03127 21.6211,2.8988 42.3571,-0.57282 63.4399,-5.41093 34.1675,-8.97134 65.8342,-24.40612 96.3778,-41.80907 28.9128,-18.57975 14.3127,-8.811 43.7504,-29.38078 249.0838,-30.75821 35.2413,-5.14786 11.0244,1.0608 l 0,0 c -29.3232,20.63235 -14.7886,10.82198 -43.5551,29.50295 -30.4346,17.53631 -62.0086,33.04957 -96.1026,42.17895 -9.8152,2.30283 -16.5259,4.1374 -26.5119,5.46192 -19.8594,2.63414 -40.0395,1.25767 -59.952,0.11514 -24.8436,-2.30805 -49.3554,-6.48227 -72.4743,-16.34572 -26.7554,-10.07091 -53.4851,-20.28931 -79.0917,-33.07988 -30.5017,-14.24525 -61.5954,-27.169 -93.0282,-39.21854 -37.0581,-13.34166 -74.7508,-24.91358 -113.902,-30.30894 -41.6931,-5.37436 -83.6134,-8.97657 -125.6818,-6.1779 -50.2182,3.60682 -100.2905,9.67304 -149.4358,20.90197 -56.5606,13.0073 -112.1292,29.3539 -166.7213,49.12832 -60.6891,21.31477 -121.4451,42.42973 -182.4764,62.75077 -57.9646,18.08865 -116.9066,33.96361 -177.7472,38.30249 -24.1604,0.58287 -43.0461,1.52314 -66.6558,0.57213 -36.3661,-1.46483 -72.5059,-7.11071 -107.695,-16.35127 -22.5458,-6.75541 -31.0371,-8.86897 -53.1582,-17.24512 -36.4305,-13.79435 -71.195,-31.63793 -105.707,-49.57472 -55.4438,-31.13413 -110.0649,-63.75315 -166.5027,-93.09982 -59.80553,-30.56376 -121.01191,-58.61008 -186.11413,-76.08597 -27.81906,-6.88405 -40.27278,-10.51225 -68.56626,-15.3245 -45.35706,-7.71449 -91.55969,-10.76087 -137.52127,-8.88688 -35.48267,2.22674 -43.84352,2.10293 -79.49509,7.02215 -59.22032,8.17126 -117.50179,22.18904 -175.30195,37.16801 -97.37542,26.81125 -193.84673,56.68854 -291.309045,83.18441 -93.975884,25.36254 -188.514315,48.59868 -284.048275,67.39201 -88.29274,16.85524 -177.19824,31.20341 -266.92463,37.75453 -79.76965,4.33007 -159.9007,4.95814 -239.21859,-6.10398 -60.70274,-8.492 -121.28829,-18.36741 -180.19017,-35.77678 -39.41934,-11.67924 -78.94309,-23.40596 -116.27029,-40.90589 z"
       inkscape:connector-curvature="0"
       sodipodi:nodetypes="cccsccccscscccsccccccccccccccccccsccccccccccscscccscscccccccc" />
  </g>
   <defs>
    <style type="text/css"><![CDATA[
		.path {
		  stroke-dasharray:1000 10000;
		  stroke-dashoffset: 10000;
		}

		#path3355 {
		  animation: dash3355 8s linear infinite;
		  -moz-animation: -moz-dash3355 8s linear infinite;
		  -webkit-animation: -webkit-dash3355 8s linear infinite;
		  -ms-animation: -ms-dash3355 8s linear infinite;
		}

		@keyframes dash3355 {
		  from {
			stroke-dashoffset: 7500;
		  }
		  to {
			stroke-dashoffset: 2000;
		  }
		}

		@keyframes -moz-dash3355 {
		  from {
			stroke-dashoffset: 7500;
		  }
		  to {
			stroke-dashoffset: 2000;
		  }
		}

		@keyframes -webkit-dash3355 {
		  from {
			stroke-dashoffset: 7500;
		  }
		  to {
			stroke-dashoffset: 2000;
		  }
		}

		@keyframes -ms-dash3355 {
		  from {
			stroke-dashoffset: 7500;
		  }
		  to {
			stroke-dashoffset: 2000;
		  }
		}

		#path3353 {
		  animation: dash3353 9s linear infinite;
		  -moz-animation: -moz-dash3353 9s linear infinite;
		  -webkit-animation: -webkit-dash3353 9s linear infinite;
		  -ms-animation: -ms-dash3353 9s linear infinite;
		}

		@keyframes dash3353 {
		  from {
			stroke-dashoffset: 7500;
		  }
		  to {
			stroke-dashoffset: 2000;
		  }
		}
		@keyframes -moz-dash3353 {
		  from {
			stroke-dashoffset: 7500;
		  }
		  to {
			stroke-dashoffset: 2000;
		  }
		}
		@keyframes -webkit-dash3353 {
		  from {
			stroke-dashoffset: 7500;
		  }
		  to {
			stroke-dashoffset: 2000;
		  }
		}
		@keyframes -ms-dash3353 {
		  from {
			stroke-dashoffset: 7500;
		  }
		  to {
			stroke-dashoffset: 2000;
		  }
		}

		#path3351 {
		  animation: dash3351 7s linear infinite;
		  -moz-animation: -moz-dash3351 7s linear infinite;
		  -webkit-animation: -webkit-dash3351 7s linear infinite;
		  -ms-animation: -ms-dash3351 7s linear infinite;
		}
		@keyframes dash3351 {
		  from {
			stroke-dashoffset: 7500;
		  }
		  to {
			stroke-dashoffset: 2000;
		  }
		}
		@keyframes -moz-dash3351 {
		  from {
			stroke-dashoffset: 7500;
		  }
		  to {
			stroke-dashoffset: 2000;
		  }
		}
		@keyframes -webkit-dash3351 {
		  from {
			stroke-dashoffset: 7500;
		  }
		  to {
			stroke-dashoffset: 2000;
		  }
		}
		@keyframes -ms-dash3351 {
		  from {
			stroke-dashoffset: 7500;
		  }
		  to {
			stroke-dashoffset: 2000;
		  }
		}
		
		#path3347 {
		  animation: dash3347 7.5s linear infinite;
		  -moz-animation: -moz-dash3347 7.5s linear infinite;
		  -webkit-animation: -webkit-dash3347 7.5s linear infinite;
		  -ms-animation: -ms-dash3347 7.5s linear infinite;
		}

		@keyframes dash3347 {
		  from {
			stroke-dashoffset: 2500;
		  }
		  to {
			stroke-dashoffset: 8000;
		  }
		}
		@keyframes -moz-dash3347 {
		  from {
			stroke-dashoffset: 2500;
		  }
		  to {
			stroke-dashoffset: 8000;
		  }
		}
		@keyframes -webkit-dash3347 {
		  from {
			stroke-dashoffset: 2500;
		  }
		  to {
			stroke-dashoffset: 8000;
		  }
		}
		@keyframes -ms-dash3347 {
		  from {
			stroke-dashoffset: 2500;
		  }
		  to {
			stroke-dashoffset: 8000;
		  }
		}

		#path3343 {
		  animation: dash3343 8.5s linear infinite;
		  -moz-animation: -moz-dash3343 8.5s linear infinite;
		  -webkit-animation: -webkit-dash3343 8.5s linear infinite;
		  -ms-animation: -ms-dash3343 8.5s linear infinite;
		}

		@keyframes dash3343 {
		  from {
			stroke-dashoffset: 2500;
		  }
		  to {
			stroke-dashoffset: 8000;
		  }
		}
		@keyframes -moz-dash3343 {
		  from {
			stroke-dashoffset: 2500;
		  }
		  to {
			stroke-dashoffset: 8000;
		  }
		}
		@keyframes -webkit-dash3343 {
		  from {
			stroke-dashoffset: 2500;
		  }
		  to {
			stroke-dashoffset: 8000;
		  }
		}
		@keyframes -ms-dash3343 {
		  from {
			stroke-dashoffset: 2500;
		  }
		  to {
			stroke-dashoffset: 8000;
		  }
		}

		#path3341 {
		  animation: dash3341 9.5s linear infinite;
		  -moz-animation: -moz-dash3341 9.5s linear infinite;
		  -webkit-animation: -webkit-dash3341 9.5s linear infinite;
		  -ms-animation: -ms-dash3341 9.5s linear infinite;
		}

		@keyframes dash3341 {
		  from {
			stroke-dashoffset: 2500;
		  }
		  to {
			stroke-dashoffset: 8000;
		  }
		}
		@keyframes -moz-dash3341 {
		  from {
			stroke-dashoffset: 2500;
		  }
		  to {
			stroke-dashoffset: 8000;
		  }
		}
		@keyframes -webkit-dash3341 {
		  from {
			stroke-dashoffset: 2500;
		  }
		  to {
			stroke-dashoffset: 8000;
		  }
		}
		@keyframes -ms-dash3341 {
		  from {
			stroke-dashoffset: 2500;
		  }
		  to {
			stroke-dashoffset: 8000;
		  }
		}

		#path3879 {
		  animation: dash3879 7.25s linear infinite;
		  -moz-animation: -moz-dash3879 7.25s linear infinite;
		  -webkit-animation: -webkit-dash3879 7.25s linear infinite;
		  -ms-animation: -ms-dash3879 7.25s linear infinite;
		}
		@keyframes dash3879 {
		  from {
			stroke-dashoffset: 8000;
		  }
		  to {
			stroke-dashoffset: 2500;
		  }
		}
		@keyframes -moz-dash3879 {
		  from {
			stroke-dashoffset: 8000;
		  }
		  to {
			stroke-dashoffset: 2500;
		  }
		}
		@keyframes -webkit-dash3879 {
		  from {
			stroke-dashoffset: 8000;
		  }
		  to {
			stroke-dashoffset: 2500;
		  }
		}
		@keyframes -ms-dash3879 {
		  from {
			stroke-dashoffset: 8000;
		  }
		  to {
			stroke-dashoffset: 2500;
		  }
		}
		

		#path3877 {
		  animation: dash3877 8.25s linear infinite;
		  -moz-animation: -moz-dash3877 8.25s linear infinite;
		  -webkit-animation: -webkit-dash3877 8.25s linear infinite;
		  -ms-animation: -ms-dash3877 8.25s linear infinite;
		}

		@keyframes dash3877 {
		  from {
			stroke-dashoffset: 8000;
		  }
		  to {
			stroke-dashoffset: 2500;
		  }
		}
		@keyframes -moz-dash3877 {
		  from {
			stroke-dashoffset: 8000;
		  }
		  to {
			stroke-dashoffset: 2500;
		  }
		}
		@keyframes -webkit-dash3877 {
		  from {
			stroke-dashoffset: 8000;
		  }
		  to {
			stroke-dashoffset: 2500;
		  }
		}
		@keyframes -ms-dash3877 {
		  from {
			stroke-dashoffset: 8000;
		  }
		  to {
			stroke-dashoffset: 2500;
		  }
		}

		#path3875 {
		  animation: dash3875 8.75s linear infinite;
		  -moz-animation: -moz-dash3875 8.75s linear infinite;
		  -webkit-animation: -webkit-dash3875 8.75s linear infinite;
		  -ms-animation: -ms-dash3875 8.75s linear infinite;
		}

		@keyframes dash3875 {
		  from {
			stroke-dashoffset: 8000;
		  }
		  to {
			stroke-dashoffset: 2500;
		  }
		}
		@keyframes -moz-dash3875 {
		  from {
			stroke-dashoffset: 8000;
		  }
		  to {
			stroke-dashoffset: 2500;
		  }
		}
		@keyframes -webkit-dash3875 {
		  from {
			stroke-dashoffset: 8000;
		  }
		  to {
			stroke-dashoffset: 2500;
		  }
		}
		@keyframes -ms-dash3875 {
		  from {
			stroke-dashoffset: 8000;
		  }
		  to {
			stroke-dashoffset: 2500;
		  }
		}

		#path3869 {
		  animation: dash3869 9.25s linear infinite;
		  -moz-animation: -moz-dash3869 9.25s linear infinite;
		  -webkit-animation: -webkit-dash3869 9.25s linear infinite;
		  -ms-animation: -ms-dash3869 9.25s linear infinite;
		}

		@keyframes dash3869 {
		  from {
			stroke-dashoffset: 8000;
		  }
		  to {
			stroke-dashoffset: 2500;
		  }
		}
		@keyframes -moz-dash3869 {
		  from {
			stroke-dashoffset: 8000;
		  }
		  to {
			stroke-dashoffset: 2500;
		  }
		}
		@keyframes -webkit-dash3869 {
		  from {
			stroke-dashoffset: 8000;
		  }
		  to {
			stroke-dashoffset: 2500;
		  }
		}
		@keyframes -ms-dash3869 {
		  from {
			stroke-dashoffset: 8000;
		  }
		  to {
			stroke-dashoffset: 2500;
		  }
		}

		#path3867 {
		  animation: dash3867 6s linear infinite;
		  -moz-animation: -moz-dash3867 6s linear infinite;
		  -webkit-animation: -webkit-dash3867 6s linear infinite;
		  -ms-animation: -ms-dash3867 6s linear infinite;
		}

		@keyframes dash3867 {
		  from {
			stroke-dashoffset: 5500;
		  }
		  to {
			stroke-dashoffset: 10000;
		  }
		}
		@keyframes -moz-dash3867 {
		  from {
			stroke-dashoffset: 5500;
		  }
		  to {
			stroke-dashoffset: 10000;
		  }
		}
		@keyframes -webkit-dash3867 {
		  from {
			stroke-dashoffset: 5500;
		  }
		  to {
			stroke-dashoffset: 10000;
		  }
		}
		@keyframes -ms-dash3867 {
		  from {
			stroke-dashoffset: 5500;
		  }
		  to {
			stroke-dashoffset: 10000;
		  }
		}

		#path3865 {
		  animation: dash3865 6.5s linear infinite;
		  -moz-animation: -moz-dash3865 6.5s linear infinite;
		  -webkit-animation: -webkit-dash3865 6.5s linear infinite;
		  -ms-animation: -ms-dash3865 6.5s linear infinite;
		}

		@keyframes dash3865 {
		  from {
			stroke-dashoffset: 5500;
		  }
		  to {
			stroke-dashoffset: 10000;
		  }
		}
		@keyframes -moz-dash3865 {
		  from {
			stroke-dashoffset: 5500;
		  }
		  to {
			stroke-dashoffset: 10000;
		  }
		}
		@keyframes -webkit-dash3865 {
		  from {
			stroke-dashoffset: 5500;
		  }
		  to {
			stroke-dashoffset: 10000;
		  }
		}
		@keyframes -ms-dash3865 {
		  from {
			stroke-dashoffset: 5500;
		  }
		  to {
			stroke-dashoffset: 10000;
		  }
		}

		#path3863 {
		  animation: dash3863 6.25s linear infinite;
		  -moz-animation: -moz-dash3863 6.25s linear infinite;
		  -webkit-animation: -webkit-dash3863 6.25s linear infinite;
		  -ms-animation: -ms-dash3863 6.25s linear infinite;
		}

		@keyframes dash3863 {
		  from {
			stroke-dashoffset: 6000;
		  }
		  to {
			stroke-dashoffset: 10000;
		  }
		}
		@keyframes -moz-dash3863 {
		  from {
			stroke-dashoffset: 6000;
		  }
		  to {
			stroke-dashoffset: 10000;
		  }
		}
		@keyframes -webkit-dash3863 {
		  from {
			stroke-dashoffset: 6000;
		  }
		  to {
			stroke-dashoffset: 10000;
		  }
		}
		@keyframes -ms-dash3863 {
		  from {
			stroke-dashoffset: 6000;
		  }
		  to {
			stroke-dashoffset: 10000;
		  }
		}

		#path3861 {
		  animation: dash3861 6.75s linear infinite;
		  -moz-animation: -moz-dash3861 6.75s linear infinite;
		  -webkit-animation: -webkit-dash3861 6.75s linear infinite;
		  -ms-animation: -ms-dash3861 6.75s linear infinite;
		}

		@keyframes dash3861 {
		  from {
			stroke-dashoffset: 2500;
		  }
		  to {
			stroke-dashoffset: 8000;
		  }
		}
		@keyframes -moz-dash3861 {
		  from {
			stroke-dashoffset: 2500;
		  }
		  to {
			stroke-dashoffset: 8000;
		  }
		}
		@keyframes -webkit-dash3861 {
		  from {
			stroke-dashoffset: 2500;
		  }
		  to {
			stroke-dashoffset: 8000;
		  }
		}
		@keyframes -ms-dash3861 {
		  from {
			stroke-dashoffset: 2500;
		  }
		  to {
			stroke-dashoffset: 8000;
		  }
		}
	]]></style>
  </defs>
</svg>
